<svg width="52" height="50" viewBox="0 0 52 50" fill="none" xmlns="http://www.w3.org/2000/svg">
<path fill-rule="evenodd" clip-rule="evenodd" d="M28.2744 5.09343V0.104652L22.8308 0.0439453L20.79 3.43022L23.2848 5.92586L28.2744 5.09343ZM22.4532 10.9146L15.8004 4.26099L12.474 7.58823L18.1472 12.641L22.4532 10.9146ZM29.4478 14.8057L26.1264 12.3899L26.7301 9.67305L32.4324 9.25226L39.9168 15.0726L38.2536 20.0622L35.7588 21.7263L33.264 20.0622V17.5674L30.7692 14.241L29.4478 14.8057ZM49.0644 47.5051H47.4012C46.942 47.5051 46.5696 47.1327 46.5696 46.6735C46.5696 46.2142 46.942 45.8419 47.4012 45.8419H49.0644C49.5237 45.8419 49.896 46.2142 49.896 46.6735C49.896 47.1327 49.5237 47.5051 49.0644 47.5051ZM49.0644 35.8627H50.7277C51.1869 35.8627 51.5593 35.4903 51.5593 35.0311C51.5593 34.5718 51.1869 34.1995 50.7277 34.1995H49.0644C48.6052 34.1995 48.2328 34.5718 48.2328 35.0311C48.2328 35.4903 48.6052 35.8627 49.0644 35.8627ZM39.0852 35.8627L44.0748 32.5363V29.2098L39.0852 24.2202L35.7588 27.5466L32.4324 24.2202L29.106 26.715L32.4324 30.8731L29.9376 35.8627L27.4428 31.7047L21.6216 29.2098L24.948 22.557L27.4428 19.2306L21.6216 15.9042L18.2952 19.2306L7.48441 8.41983L0.831601 15.9042L2.78586 23.9558L0 26.715L2.4948 34.1995L22.4532 44.1787L24.948 40.0207L29.9376 43.3471L33.264 49.9999L37.422 43.3471H44.0748L44.9064 38.3575L39.0852 35.8627Z" fill="#0E8784"/>
</svg>
